<svg width="144" height="269" viewBox="0 0 144 269" fill="none" xmlns="http://www.w3.org/2000/svg">
<path fill-rule="evenodd" clip-rule="evenodd" d="M138.783 39.6682L94.1739 0C81.7826 10.7435 69.8044 22.7266 58.2391 35.9493C47.5 49.1721 37.5869 63.2212 28.5 78.0968C19.413 92.9723 12.3913 109.501 7.43477 127.682C2.47824 145.037 -3.05176e-05 163.631 -3.05176e-05 183.465C-3.05176e-05 213.217 7.02173 235.117 21.0652 249.166C35.1087 262.389 52.8696 269 74.3478 269C95 269 111.522 263.215 123.913 251.645C137.13 239.249 143.739 223.547 143.739 204.539C143.739 184.705 137.543 169.003 125.152 157.433C112.761 145.863 97.8913 140.078 80.5435 140.078C65.6739 140.078 53.2826 142.558 43.3696 147.516C42.2876 148.008 41.2232 148.57 40.1764 149.203C41.7346 143.35 43.6251 137.829 45.8478 132.641C51.6304 120.244 58.6522 109.088 66.913 99.1705C75.1739 89.2534 85.0869 79.3364 96.6521 69.4193C109.043 59.5023 123.087 49.5852 138.783 39.6682Z" fill="#EB3758"/>
</svg>
