<svg width="145" height="270" viewBox="0 0 145 270" fill="none" xmlns="http://www.w3.org/2000/svg">
<path fill-rule="evenodd" clip-rule="evenodd" d="M7.05601 230.593L52.026 269.851C64.3184 258.995 76.1865 246.902 87.6302 233.574C98.2478 220.254 108.032 206.114 116.982 191.156C125.933 176.198 132.803 159.606 137.593 141.38C142.39 123.981 144.698 105.364 144.516 85.531C144.244 55.7811 137.022 33.9462 122.85 20.0262C108.686 6.93264 90.8657 0.484109 69.3884 0.680762C48.7371 0.869851 32.269 6.80585 19.9841 18.4887C6.88081 31.0055 0.416131 46.7674 0.590163 65.7742C0.771762 85.6076 7.11093 101.252 19.6077 112.708C32.1044 124.164 47.0263 129.813 64.3734 129.654C79.2423 129.518 91.6104 126.925 101.478 121.876C102.555 121.374 103.614 120.802 104.655 120.16C103.151 126.027 101.311 131.565 99.1357 136.774C93.4668 149.222 86.5475 160.443 78.3778 170.435C70.2081 180.427 60.3863 190.435 48.9123 200.457C36.6123 210.487 22.6602 220.533 7.05601 230.593Z" fill="#EB3758"/>
</svg>
