<svg width="83" height="52" viewBox="0 0 83 52" fill="none" xmlns="http://www.w3.org/2000/svg">
<g clip-path="url(#clip0_1869_70)">
<path d="M82.0544 12.7769C81.4277 9.64317 80.0754 6.70734 78.0523 4.05739C76.0073 1.36346 72.9837 0 69.0805 0C65.936 0 63.2313 0.692725 61.0213 2.04519C61.0213 1.5174 60.9993 1.16554 60.9444 0.989607C60.8674 0.736707 60.6255 0.60476 60.1967 0.60476L58.4485 0.670734L55.9857 0.802681L53.8307 0.670734L52.3464 0.60476H52.0495C51.8516 0.60476 51.6647 0.659738 51.4778 0.769694C51.2469 0.901642 51.137 1.17653 51.137 1.63835L51.4008 6.93824L51.4558 14.2503C50.7302 12.0182 49.5317 10.028 47.8715 8.32369C45.7385 6.11357 42.539 5.00301 38.383 5.00301C36.162 5.00301 33.9191 5.61877 31.7311 6.83928C29.5321 8.0598 27.641 10.2259 26.1017 13.2827C25.2441 14.987 24.6174 17.0652 24.2326 19.4513L12.754 20.6828L12.82 17.2302L12.8859 10.5888C12.8859 10.006 12.9189 9.24733 12.9959 8.32369L27.1352 6.67435C27.586 6.66335 27.8719 6.61937 28.0698 6.53141C28.5426 6.31149 28.5426 5.62976 28.5426 5.36587V1.63835C28.5426 1.06658 28.2897 0.0989607 26.5855 0.0989607L20.9342 0.0219913C19.9336 0.0219913 18.6582 0.0989607 17.1409 0.241904L15.1289 0.395843C14.4802 0.439825 13.8755 0.472812 13.3257 0.472812L9.01576 0.626751L3.91416 0.78069C3.52934 0.78069 3.21049 0.758699 2.94661 0.714716C2.62776 0.659738 2.3309 0.637747 2.03404 0.637747C1.4953 0.637747 1.0555 0.857659 0.780633 1.2645C0.527752 1.63835 0.406809 2.28709 0.406809 3.29869C0.494767 7.36707 0.538747 10.8197 0.538747 13.5796C0.538747 14.7561 0.494767 16.5044 0.406809 18.7915L0.34084 23.7176L0.406809 32.2062C0.406809 33.6246 0.34084 34.9221 0.208902 36.0767C0.208902 36.4065 0.175917 36.9673 0.109948 37.715C0.0329845 38.4957 0 39.2764 0 40.0351L0.065969 45.1371C0.109948 45.6319 0.131938 46.2146 0.131938 46.8964L0.186912 50.338C0.186912 50.5689 0.384819 50.7558 0.604716 50.7558H12.1713C12.2812 50.7558 12.3912 50.7119 12.4681 50.6349C12.5451 50.5579 12.5891 50.448 12.5891 50.338L12.5231 41.9813C12.5231 41.1347 12.5671 39.9142 12.6551 38.3418L12.721 34.6802L12.6551 29.9631C12.6331 29.6332 12.6111 29.1714 12.6001 28.6106L23.9467 29.1824C24.3096 33.0309 25.2441 36.7364 26.7394 40.178C28.7405 44.7852 32.7866 47.1273 38.7568 47.1273C41.8463 47.1273 44.4851 46.0057 46.6071 43.8066C48.7071 41.6185 50.2794 38.8806 51.2909 35.6588C51.3459 35.4939 51.3898 35.329 51.4448 35.164C51.3898 36.3845 51.3239 37.792 51.2469 39.3644L50.983 47.1713C50.983 48.0949 50.994 48.7216 51.016 49.0955C51.038 49.4694 51.049 49.7223 51.049 49.8542C51.049 50.1731 51.115 50.415 51.2689 50.5909C51.4228 50.7778 51.7087 50.8658 52.1375 50.8658L59.1302 50.9318C59.2951 50.9318 59.471 50.9538 59.658 50.9977C59.8779 51.0417 60.1087 51.0747 60.3396 51.0747C60.8124 51.0747 61.0873 50.8218 61.0873 50.393L61.1533 46.0277L61.2192 39.1335C63.5391 40.4969 66.1779 41.1896 69.0805 41.1896C73.8413 41.1896 77.3926 39.2544 79.6466 35.4389C81.8785 31.6564 83 26.8074 83 21.0127C83 18.6486 82.6811 15.8887 82.0544 12.7769ZM73.7423 17.0212C73.7423 19.7921 73.1706 22.1782 72.0491 24.1244C70.9277 26.0597 69.2235 26.9943 66.8376 26.9943C64.3857 26.9943 62.8135 26.1586 62.0218 24.4213C61.2192 22.662 60.8124 20.4299 60.8124 17.7799C60.8124 10.6768 63.0004 7.22413 67.4973 7.22413C69.5643 7.22413 71.1366 7.94984 72.1591 9.39027C73.2146 10.8747 73.7423 13.4367 73.7423 17.0212Z" fill="#EB3758"/>
<path d="M43.8254 35.7578C42.572 38.0559 40.6149 39.1994 37.9542 39.1994C35.2164 39.1994 33.4023 38.1659 32.5117 36.0877C31.6211 34.0095 31.1813 31.4145 31.1813 28.3028C31.1813 20.0011 33.6772 15.8557 38.6798 15.8557C41.0217 15.8557 42.7699 16.7244 43.9463 18.4727C45.1118 20.21 45.7055 23.2008 45.7055 27.4231C45.6945 30.6778 45.0788 33.4597 43.8254 35.7578Z" fill="#FF9900"/>
<path d="M40.373 33.0859C39.6693 34.3284 38.5809 34.9551 37.0966 34.9551C35.5683 34.9551 34.5567 34.3944 34.062 33.2728C33.5672 32.1513 33.3143 30.7438 33.3143 29.0505C33.3143 24.5533 34.7107 22.2992 37.5034 22.2992C38.8117 22.2992 39.7903 22.772 40.439 23.7176C41.0877 24.6632 41.4175 26.2796 41.4175 28.5667C41.4285 30.337 41.0767 31.8434 40.373 33.0859Z" fill="#EAD9A7"/>
</g>
<defs>
<clipPath id="clip0_1869_70">
<rect width="83" height="51.0307" fill="white"/>
</clipPath>
</defs>
</svg>
